<?xml version="1.0" encoding="UTF-8"?>
<svg id="Layer_2" data-name="Layer 2" xmlns="http://www.w3.org/2000/svg" viewBox="0 0 373.25 56.22">
  <defs>
    <style>
      .cls-1 {
        fill: #58595b;
      }
    </style>
  </defs>
  <g id="Layer_2-2" data-name="Layer 2">
    <g>
      <path class="cls-1" d="M42.15,55.27h-4.7L6.86,11.6c-.35-.5-.69-1.03-1-1.57-.32-.54-.68-1.17-1.08-1.88h-.19c.08.43.13,1.02.15,1.76.02.75.04,1.64.04,2.67v42.69H0V.91h5.04l30.14,43.18c.46.66.87,1.28,1.25,1.88s.72,1.16,1.02,1.69h.15c-.08-.83-.14-1.75-.19-2.75-.05-1-.08-2.05-.08-3.17V.91h4.81v54.36Z"/>
      <path class="cls-1" d="M84.5,55.27h-27.48V.91h26.27v4.36h-21.49v20.32h19.94v4.36h-19.94v20.96h22.71v4.36Z"/>
      <path class="cls-1" d="M132.23,55.27h-5.88l-12.51-20.77c-.3-.51-.6-1.04-.89-1.61-.29-.57-.56-1.16-.81-1.76h-.19c-.25.56-.53,1.11-.83,1.65-.3.54-.63,1.12-.99,1.73l-12.77,20.77h-5.84l17.59-27.41L92.69.91h5.88l11.71,19.9c.33.58.66,1.17,1,1.78.34.61.66,1.25.97,1.93h.15c.43-.83.78-1.5,1.04-2.01.27-.5.6-1.1,1-1.78L126.31.91h5.53l-16.6,26.92,16.98,27.45Z"/>
      <path class="cls-1" d="M136.7,55.27L157.32.91h4.81l20.55,54.36h-5.38l-5.91-15.96h-23.58l-5.8,15.96h-5.31ZM149.47,34.95h20.32l-9.02-24.6c-.23-.58-.42-1.2-.57-1.86-.15-.66-.33-1.35-.53-2.08h-.15c-.18.78-.36,1.5-.55,2.16s-.37,1.23-.55,1.71l-8.95,24.68Z"/>
      <path class="cls-1" d="M229.08,10.88h-15.5v44.39h-12.28V10.88h-15.43V.91h43.22v9.97Z"/>
      <path class="cls-1" d="M269.04,55.27h-32.6V.91h31.35v9.97h-19.11v12.09h17.78v9.93h-17.78v12.43h20.36v9.93Z"/>
      <path class="cls-1" d="M318.62,52.62c-2.86,1.26-5.62,2.18-8.3,2.75s-5.57.85-8.68.85c-8.47,0-15.13-2.37-20-7.11s-7.3-11.52-7.3-20.34c0-8.26,2.65-15.13,7.96-20.58,5.31-5.46,12.31-8.19,21-8.19,2.91,0,5.5.2,7.79.61s4.67,1.06,7.15,1.97l-3.6,9.89c-1.87-.68-3.67-1.17-5.38-1.48-1.72-.3-3.58-.46-5.57-.46-4.45,0-8.3,1.56-11.56,4.68-3.26,3.12-4.89,7.35-4.89,12.68s1.42,9.82,4.26,12.93,6.74,4.66,11.69,4.66c1.29,0,2.92-.21,4.91-.63s4.04-1.1,6.16-2.07l4.36,9.82Z"/>
      <path class="cls-1" d="M373.25,55.27h-12.28v-22.14h-22.52v22.14h-12.25V.91h12.25v21.68h22.52V.91h12.28v54.36Z"/>
    </g>
  </g>
</svg>