<?xml version="1.0" encoding="UTF-8"?>
<svg id="Layer_2" data-name="Layer 2" xmlns="http://www.w3.org/2000/svg" xmlns:xlink="http://www.w3.org/1999/xlink" viewBox="0 0 857.71 680.65">
  <defs>
    <style>
      .cls-1 {
        fill: url(#linear-gradient-2);
      }

      .cls-2 {
        fill: #231f20;
      }

      .cls-3 {
        fill: #fff;
      }

      .cls-4 {
        fill: none;
      }

      .cls-5 {
        fill: url(#linear-gradient-3);
      }

      .cls-6 {
        fill: #1c75bc;
      }

      .cls-7 {
        fill: #2b3990;
      }

      .cls-8 {
        fill: url(#linear-gradient-4);
        opacity: .67;
      }

      .cls-9 {
        fill: #e6e7e8;
      }

      .cls-10 {
        fill: #58595b;
      }

      .cls-11 {
        opacity: .44;
      }

      .cls-12 {
        fill: url(#linear-gradient);
      }

      .cls-13 {
        fill: #bcbec0;
      }

      .cls-14 {
        fill: #00aeef;
      }

      .cls-15 {
        opacity: .5;
      }

      .cls-16 {
        fill: #414042;
      }
    </style>
    <linearGradient id="linear-gradient" x1="638.23" y1="195.81" x2="747.97" y2="195.81" gradientUnits="userSpaceOnUse">
      <stop offset="0" stop-color="#f8f8ef"/>
      <stop offset=".2" stop-color="#e1e3dd"/>
      <stop offset=".41" stop-color="#c3cfce"/>
      <stop offset=".68" stop-color="#aab8b3"/>
      <stop offset="1" stop-color="#9db4b5"/>
    </linearGradient>
    <linearGradient id="linear-gradient-2" x1="747.97" y1="195.81" x2="857.71" y2="195.81" gradientUnits="userSpaceOnUse">
      <stop offset="0" stop-color="#7d8e91"/>
      <stop offset=".2" stop-color="#788888"/>
      <stop offset=".41" stop-color="#76858d"/>
      <stop offset=".68" stop-color="#798d8f"/>
      <stop offset="1" stop-color="#68828b"/>
    </linearGradient>
    <clipPath id="clippath">
      <path class="cls-4" d="M747.97,100.35v194.36c-49.35-25.91-84.36-87.15-85.6-159,36.04-3.56,66.92-16.82,85.6-35.37Z"/>
    </clipPath>
    <clipPath id="clippath-1">
      <rect class="cls-4" x="657.37" y="95.35" width="95.6" height="204.37"/>
    </clipPath>
    <clipPath id="clippath-2">
      <rect class="cls-4" x="657.37" y="95.35" width="95.6" height="204.37"/>
    </clipPath>
    <linearGradient id="linear-gradient-3" x1="747.97" y1="197.53" x2="833.57" y2="197.53" gradientUnits="userSpaceOnUse">
      <stop offset="0" stop-color="#27333d"/>
      <stop offset=".2" stop-color="#222c36"/>
      <stop offset=".41" stop-color="#253037"/>
      <stop offset=".68" stop-color="#1e2b32"/>
      <stop offset="1" stop-color="#1b232c"/>
    </linearGradient>
    <linearGradient id="linear-gradient-4" x1="657.55" y1="198.09" x2="838.38" y2="198.09" xlink:href="#linear-gradient-2"/>
  </defs>
  <g id="Layer_3" data-name="Layer 3">
    <g class="cls-11">
      <path class="cls-14" d="M396.82,296.66c1.06-.32,2.12-.57,3.19-.74l-.12-.28c-1.03.33-2.05.67-3.07,1.02Z"/>
    </g>
    <g class="cls-11">
      <path class="cls-14" d="M554.09,344.55c-.06-.19-.12-.38-.18-.57s-.13-.37-.2-.55c.13.37.26.75.38,1.13Z"/>
    </g>
    <g class="cls-11">
      <path class="cls-14" d="M395.15,297.22c.55-.19,1.11-.38,1.66-.57-.29.09-.58.18-.87.28-.27.09-.53.18-.79.29Z"/>
    </g>
    <g class="cls-11">
      <path class="cls-14" d="M396.82,296.66c1.06-.32,2.12-.57,3.19-.74l-.12-.28c-1.03.33-2.05.67-3.07,1.02Z"/>
      <path class="cls-14" d="M395.15,297.22c.55-.19,1.11-.38,1.66-.57-.29.09-.58.18-.87.28-.27.09-.53.18-.79.29Z"/>
    </g>
    <g class="cls-11">
      <path class="cls-14" d="M0,206.13c.34-1.42.68-2.85,1.03-4.26-.21.67-.4,1.34-.56,2.02-.19.75-.34,1.49-.47,2.24Z"/>
      <path class="cls-14" d="M201.88,254.44c.13-.45.25-.9.36-1.35.11-.43.2-.87.29-1.31-.22.89-.44,1.77-.65,2.66Z"/>
    </g>
    <g class="cls-11">
      <path class="cls-14" d="M123.06,665.12c.11-.02.23-.05.34-.08-.09.02-.17.04-.26.06-.03,0-.06.01-.09.02Z"/>
    </g>
  </g>
  <g id="Layer_2-2" data-name="Layer 2">
    <g>
      <path class="cls-6" d="M378.5,331.67c-.47,1.12-.89,2.25-1.27,3.4,0,0,0,0,0,0,0,0,0,0,0,0-1.02,3.1-1.71,6.31-2.06,9.59-.33,3.13-3.07,5.43-6.19,5.23-.09,0-.17-.01-.26-.02-3.22-.34-5.55-3.23-5.21-6.44.23-2.15.57-4.28,1.04-6.38l-7.66-2.53h0c-1.08.77-2.41,1.17-3.77,1.09-.43-.03-.86-.1-1.29-.22-3.11-.91-4.89-4.16-3.98-7.27,2.62-8.97,6.83-17.3,12.52-24.76,1.96-2.57,5.64-3.07,8.21-1.11,2.57,1.96,3.07,5.64,1.11,8.21-3.16,4.15-5.79,8.62-7.84,13.35l6.51,2.15c1.56-2.17,4.46-3.05,7.03-1.97,2.98,1.26,4.38,4.69,3.13,7.67Z"/>
      <g>
        <path class="cls-7" d="M323.08,359.61c-.05-.47-.09-.93-.13-1.4l.17-.02c-.07.46-.09.94-.04,1.43Z"/>
        <path class="cls-7" d="M393.93,394.37c-1.24,1.6-3.13,2.38-5.01,2.27-1.13-.07-2.25-.47-3.22-1.21-5.01-3.87-9.33-8.51-12.84-13.78-2.46-3.7-4.48-7.63-6.02-11.76l-6.59,1.73c.44,2.76-1.14,5.52-3.88,6.46-.75.26-1.52.36-2.27.31-2.29-.14-4.38-1.63-5.18-3.94-.62-1.81-1.18-3.64-1.66-5.48-.5-1.9-.93-3.83-1.28-5.76l-10.45,1.08c1.99,11.59,6.34,22.73,12.81,32.65,1.77,2.71,1,6.34-1.71,8.11-1.1.72-2.35,1.02-3.56.94-1.79-.11-3.5-1.04-4.55-2.65-6.68-10.24-11.38-21.64-13.87-33.53l-16.24,2.41h-.01c-.42.06-.83.08-1.23.05-.25-.02-.5-.05-.75-.1-.08-.02-.15-.03-.23-.05-.25-.06-.49-.13-.73-.22-.08-.03-.15-.06-.23-.09-.04-.02-.07-.03-.11-.05-.06-.03-.13-.06-.19-.09-.08-.04-.17-.08-.25-.13-.07-.04-.14-.08-.21-.12-.14-.09-.28-.18-.41-.27-.06-.04-.12-.09-.17-.13-.02-.01-.03-.02-.05-.04-.06-.04-.11-.09-.16-.14-.15-.13-.3-.28-.44-.43-.03-.03-.05-.06-.08-.09-.27-.31-.52-.64-.72-1-.04-.07-.08-.14-.12-.21-.02-.04-.04-.08-.06-.12-.03-.06-.06-.13-.09-.19-.01-.02-.02-.05-.03-.07-.04-.1-.09-.21-.12-.32-.09-.24-.16-.48-.21-.73,0-.03-.01-.06-.02-.09-.02-.1-.04-.2-.05-.3,0,0,0,0,0,0-.28-1.88-.51-3.79-.7-5.68-.32-3.22,2.03-6.09,5.25-6.41,2.98-.3,5.66,1.7,6.3,4.56l10.34-1.53c.04.47.08.93.13,1.4,0,.02,0,.04,0,.07,0,.04,0,.07.01.11,0-.06-.01-.12-.02-.18-.05-.49-.03-.96.04-1.43l-.17.02c-.09-.99-.16-1.97-.21-2.96-.18-3.23,2.29-6,5.52-6.18,2.55-.14,4.81,1.36,5.74,3.6l10.81-1.12c.09-3.08,2.57-5.58,5.69-5.67,3.24-.09,5.93,2.45,6.03,5.69.09,2.92.37,5.83.85,8.7l11.88-3.12c.08-.02.16-.04.23-.06.08-.02.16-.03.23-.05.16-.03.31-.05.47-.06.08,0,.16-.01.23-.02.15,0,.29-.01.43,0,.01,0,.02,0,.04,0h.02s.02,0,.03,0c.11,0,.22,0,.33.02,0,0,.02,0,.03,0h.03s.02,0,.02,0c.01,0,.02,0,.03,0,.06,0,.12.01.18.02.07,0,.15.02.22.04.08.01.15.03.22.05.07.02.15.03.22.05.07.02.15.04.22.06.07.02.14.05.21.07.07.02.14.05.21.08.07.03.14.06.21.09.07.03.13.06.2.09,0,0,0,0,0,0,.07.03.13.07.2.1.07.04.13.07.2.11.06.04.13.08.19.12.06.04.13.08.19.12.06.04.12.09.18.13.06.04.12.09.18.14.06.04.11.09.16.14,0,0,0,0,.01,0,.06.05.11.1.16.15.04.04.09.08.13.12.01.02.03.03.05.05.05.05.1.1.14.15.05.06.1.11.15.17.05.06.1.12.14.18h0c.09.12.18.25.27.37h0c.08.13.16.26.24.4h0c.07.14.14.28.21.42h0c.06.15.12.29.17.44.05.15.1.3.14.46,0,.01,0,.02,0,.03,2.57,9.78,8.42,18.59,16.46,24.8,2.56,1.98,3.03,5.66,1.05,8.22Z"/>
      </g>
      <path class="cls-7" d="M503.85,437.31c-5.85,5.52-12.28,10.47-19.1,14.72-6.88,4.29-14.22,7.88-21.8,10.69-15.8,5.85-32.4,8.29-49.34,7.24-16.66-1.03-32.59-5.38-47.34-12.91-2.88-1.47-4.03-5-2.55-7.88,1.47-2.88,5-4.03,7.89-2.55.71.36,1.42.71,2.13,1.06l4.01-9.6c-2.76-1.48-3.88-4.89-2.5-7.73,1.42-2.91,4.93-4.12,7.84-2.7,1.44.7,2.89,1.36,4.35,1.97,0,0,0,0,.01,0,.09.04.18.07.26.11,8.87,3.7,18.26,5.87,27.99,6.48,9.7.6,19.25-.39,28.35-2.87l-3.47-9.95c-1.16.31-2.32.59-3.49.84-.54.12-1.07.15-1.59.12-2.56-.16-4.8-2-5.36-4.62-.68-3.16,1.34-6.28,4.5-6.96,2.62-.56,5.19-1.28,7.69-2.16,16.54-5.78,30.28-18.2,37.6-34.34,1.34-2.95,4.81-4.25,7.76-2.92,2.95,1.34,4.25,4.81,2.92,7.76-4.88,10.76-12.34,20.4-21.58,27.86-5.29,4.28-11.16,7.83-17.38,10.56l3.47,9.96c8.71-3.72,16.84-8.9,24.09-15.44,2.4-2.17,6.11-1.98,8.28.43,2.17,2.4,1.98,6.11-.43,8.28-9.63,8.68-20.68,15.29-32.83,19.64-.24.09-.48.17-.73.26-12.37,4.32-25.33,6.09-38.52,5.27-9.1-.57-17.95-2.34-26.42-5.31l-4.01,9.6h0c9.53,3.4,19.51,5.43,29.79,6.07,30.38,1.89,59.32-8.58,81.47-29.48,2.35-2.22,6.06-2.11,8.28.24,2.22,2.35,2.11,6.06-.24,8.28Z"/>
      <g class="cls-15">
        <path class="cls-6" d="M501.73,259.89c-2.41-2.15-6.1-1.95-8.26.45l-1.5,1.66c.25-.7.63-1.36,1.15-1.95,2.16-2.41,5.86-2.62,8.27-.46.11.1.22.19.33.29Z"/>
      </g>
      <path class="cls-6" d="M527.73,405.97c-.91,1.71-1.86,3.41-2.85,5.08,0,0,0,.01,0,.02-.03.06-.07.11-.1.17,0,0,0,0,0,.01-2.02,3.39-4.21,6.68-6.54,9.85-1.23,1.66-3.17,2.49-5.08,2.37-1.09-.07-2.17-.44-3.11-1.13-2.61-1.92-3.16-5.59-1.24-8.2.97-1.31,1.91-2.65,2.82-4.02l-8.95-5.31c-.52.76-1.05,1.52-1.59,2.27-1.22,1.7-3.18,2.55-5.13,2.42-1.06-.07-2.12-.42-3.06-1.09-2.63-1.89-3.22-5.55-1.33-8.18,1.48-2.06,2.87-4.18,4.16-6.35,5.07-8.54,8.63-17.88,10.53-27.63l-11.63-1.47h0c-1.14,1.03-2.67,1.6-4.29,1.5-.18-.01-.36-.03-.54-.06-1.7-.26-3.11-1.23-3.99-2.56h0s-8.3-1.05-8.3-1.05c-1.01,4.41-2.54,8.68-4.58,12.77-3.34,6.7-7.89,12.62-13.52,17.6-5.63,4.98-12.07,8.76-19.14,11.24-6.5,2.28-13.27,3.37-20.16,3.25l-.85,7.14c2.08,1,3.46,3.19,3.3,5.64-.2,3.23-2.98,5.69-6.21,5.49-11.16-.69-21.76-3.72-31.52-9-3.45-1.86-6.72-3.97-9.8-6.3l-25.61,28.93h0c-.08.1-.17.19-.26.28-.04.04-.09.09-.13.13-.09.09-.18.17-.28.25-.04.03-.08.07-.13.1,0,0-.01,0-.02.01h0s-.09.07-.13.1c-.05.03-.09.07-.14.1h0s-.01,0-.02.01c-.04.03-.08.06-.13.08,0,0-.02.01-.03.02-.05.03-.09.06-.14.09-.03.02-.05.03-.08.05-.03.01-.05.03-.08.04-.05.03-.1.06-.16.08-.05.03-.1.05-.16.08-.05.02-.11.05-.16.07-.05.02-.11.05-.16.07-.05.02-.11.04-.16.06-.05.02-.1.04-.16.06-.1.03-.21.07-.31.1-.05.01-.11.03-.16.04-.11.03-.21.05-.32.07-.11.02-.21.04-.32.05-.05,0-.11.01-.16.02-.05,0-.1.01-.16.02-.04,0-.07,0-.11,0-.05,0-.1,0-.14,0-.05,0-.1,0-.14,0-.03,0-.07,0-.1,0-.05,0-.11,0-.16,0-.05,0-.11,0-.16,0-.08,0-.16-.01-.24-.02-.06,0-.11-.01-.17-.02,0,0,0,0-.01,0-.03,0-.06,0-.1-.01h0s-.08-.01-.13-.02c-.04,0-.07-.01-.11-.02-.05,0-.11-.02-.16-.03-.03,0-.07-.02-.1-.02-.02,0-.03,0-.05-.01-.01,0-.03,0-.04-.01-.02,0-.05-.01-.07-.02-.02,0-.05-.01-.07-.02-.02,0-.04-.01-.06-.02,0,0,0,0-.01,0-.05-.01-.09-.03-.14-.04,0,0-.01,0-.02,0-.04-.01-.08-.03-.12-.04-.01,0-.03-.01-.04-.02-.07-.02-.14-.05-.2-.08-.03-.01-.06-.02-.08-.04,0,0,0,0,0,0,0,0,0,0-.01,0-.03-.01-.05-.02-.07-.03-.03-.01-.05-.02-.07-.03,0,0-.02,0-.02-.01-.04-.02-.08-.04-.12-.06-.02,0-.04-.02-.06-.03-.06-.03-.12-.07-.18-.1-.05-.03-.11-.06-.16-.1,0,0-.01,0-.02-.01-.03-.01-.05-.03-.08-.05,0,0,0,0,0,0-.05-.03-.1-.07-.15-.1,0,0,0,0-.01,0-.01,0-.02-.01-.03-.02-.01,0-.02-.01-.03-.02-.04-.03-.08-.06-.13-.09-.01-.01-.03-.02-.04-.03-.06-.04-.12-.09-.18-.14-.06-.05-.13-.11-.19-.16,0,0-.02-.02-.03-.03-7.07-6.27-13.4-13.37-18.83-21.11-5.47-7.8-10.01-16.24-13.48-25.07-1.19-3.01.3-6.41,3.31-7.6,3.01-1.19,6.41.3,7.6,3.31,5.55,14.1,14.11,27.03,24.92,37.72l21.64-24.44c-1.96-2.02-3.81-4.17-5.56-6.43-1.98-2.56-1.51-6.24,1.05-8.22,2.56-1.98,6.24-1.51,8.22,1.05,9.43,12.19,22.83,20.53,37.7,23.69l1.45-12.19h0s0-.04,0-.05c0-.03,0-.07.01-.1.01-.11.03-.22.06-.32.01-.05.02-.11.04-.17.04-.16.08-.32.13-.48.07-.23.16-.45.26-.66.04-.08.08-.16.12-.24.11-.2.22-.4.35-.59.08-.11.16-.22.24-.33.03-.04.06-.07.09-.11.06-.07.12-.14.18-.21.06-.07.13-.14.19-.2.06-.06.13-.12.19-.18.17-.16.36-.31.55-.45.06-.05.13-.09.2-.14.08-.05.16-.1.23-.15.12-.07.23-.13.35-.19.25-.12.5-.23.76-.32.13-.04.26-.08.39-.12.31-.08.63-.14.96-.16.05,0,.09,0,.14,0,0,0,0,0,0,0,.06,0,.13,0,.19,0,.28,0,.56,0,.85.04.02,0,.05,0,.07,0,.83.1,1.68.17,2.51.22,24.42,1.52,45.66-16.33,48.68-40.28,0,0,0-.02,0-.02h0c.12-.97.21-1.94.27-2.93,1.58-25.42-17.81-47.38-43.23-48.96-12.79-.79-25,3.59-34.38,12.34-2.37,2.21-6.07,2.08-8.28-.28-2.21-2.37-2.08-6.07.28-8.28,5.7-5.31,12.28-9.37,19.56-12.04,7.54-2.77,15.47-3.93,23.55-3.42,7.8.48,15.27,2.48,22.21,5.94,6.7,3.34,12.62,7.89,17.6,13.52,4.98,5.63,8.76,12.07,11.24,19.14,2.33,6.63,3.42,13.55,3.24,20.6l6.66.84c.26-7.3-.7-14.5-2.85-21.43-.96-3.09.76-6.38,3.85-7.34,3.09-.96,6.38.76,7.34,3.85,2.65,8.53,3.77,17.4,3.33,26.38l10.42,1.32c.36-6.22.06-12.45-.89-18.54-.5-3.2,1.69-6.2,4.88-6.7,3.2-.5,6.19,1.69,6.7,4.88,1.1,7.04,1.43,14.25.99,21.42-.1,1.58-.23,3.16-.41,4.73h0c-.11,1.01-.24,2.01-.38,3.01h0c-1.55,10.96-4.92,21.53-9.96,31.31l8.97,5.32c1.63-2.54,4.96-3.44,7.67-2.01,2.86,1.51,3.95,5.06,2.44,7.92Z"/>
      <g class="cls-15">
        <path class="cls-6" d="M387.71,429.72c-.09-.04-.17-.07-.26-.11.05.02.1.04.16.06.04.02.07.03.11.05Z"/>
      </g>
      <g class="cls-15">
        <path class="cls-6" d="M413.49,395.58c-.13.03-.26.07-.39.12.13-.04.26-.08.39-.12Z"/>
        <path class="cls-6" d="M415.71,395.45s-.05,0-.07,0c-.29-.03-.57-.05-.85-.04.28,0,.57,0,.85.04.02,0,.05,0,.07,0Z"/>
      </g>
      <g class="cls-15">
        <path class="cls-6" d="M369.71,357.03c.16-.03.31-.05.47-.06-.16.02-.31.04-.47.06Z"/>
        <path class="cls-6" d="M370.41,356.95c.15,0,.29-.01.43,0-.14,0-.29,0-.43,0Z"/>
        <path class="cls-6" d="M371.27,356.96c-.11-.01-.22-.02-.33-.02.11,0,.22,0,.33.02Z"/>
        <path class="cls-6" d="M375.38,359.22c.09.12.18.24.27.37-.09-.13-.17-.25-.27-.37Z"/>
        <path class="cls-6" d="M376.09,360.41c.06.14.12.29.17.44-.05-.15-.11-.3-.17-.44Z"/>
        <path class="cls-6" d="M376.41,361.31h0c-.04-.15-.09-.31-.14-.46.05.15.1.3.14.46Z"/>
      </g>
      <g>
        <path class="cls-7" d="M541.46,357.05c-.49,7.94-1.76,15.83-3.78,23.46-.73,2.75-3.29,4.52-6.02,4.35-.38-.02-.76-.08-1.14-.18-3.13-.83-5-4.03-4.17-7.16,1.82-6.88,2.97-14.01,3.41-21.19,1.95-31.41-9.51-61.56-31.6-83.67l-6.96,7.73c8.83,8.95,15.9,19.54,20.79,31.22,1.25,2.99-.16,6.42-3.14,7.67-.86.36-1.75.5-2.62.44-2.16-.13-4.16-1.46-5.05-3.59-4.96-11.86-12.27-22.17-21.28-30.49h0c-.48-.44-.96-.88-1.45-1.31,0,0,0,0,0,0-.56-.5-1.13-.99-1.71-1.47l-6.23,8.58c5.4,4.6,10.17,9.95,14.1,15.85,1.79,2.69,1.07,6.33-1.63,8.13-1.11.74-2.38,1.05-3.61.97-1.77-.11-3.46-1.01-4.52-2.6-4.22-6.33-9.4-11.76-15.28-16.14,0,0,0,0,0,0-.35-.26-.7-.51-1.05-.77,0,0,0,0,0,0-1.77-1.26-3.59-2.43-5.48-3.5-.37-.21-.75-.42-1.12-.62,0,0,0,0,0,0-8.13-4.41-17.24-7.05-26.83-7.65-4.38-.27-8.78-.1-13.08.5-3.2.45-6.17-1.78-6.62-4.99-.45-3.2,1.78-6.17,4.99-6.62,5.08-.72,10.28-.92,15.44-.6,6.07.38,12.07,1.47,17.83,3.25,3.17.98,6.27,2.16,9.28,3.55l5.13-9.23c-9.73-4.55-20.4-7.32-31.6-8.02-16.83-1.05-32.99,2.85-46.95,10.49l5.62,8.81c1.3-.69,2.61-1.35,3.94-1.97,2.94-1.36,6.42-.08,7.78,2.86,1.36,2.94.08,6.42-2.86,7.78-2.61,1.21-5.14,2.6-7.58,4.14-.02.01-.04.02-.05.03,0,0,0,0-.01,0,0,0-.01,0-.02.01-1.86,1.19-3.66,2.48-5.4,3.85-1.18.94-2.61,1.35-4.01,1.26-1.6-.1-3.15-.85-4.23-2.21-2.01-2.53-1.59-6.22.95-8.23.53-.42,1.06-.83,1.6-1.23l-5.62-8.82c-17.02,12.53-29.46,31.19-33.73,53.18-.57,2.92-3.22,4.91-6.11,4.73-.25-.02-.51-.05-.76-.1-3.18-.62-5.25-3.69-4.64-6.87,3.82-19.69,13.59-37.68,27.89-51.62l-6.87-7.94c-17.77,17.13-29.78,40.38-32.6,66.83-.33,3.13-3.07,5.42-6.19,5.23-.09,0-.17-.01-.26-.02-3.22-.34-5.55-3.23-5.21-6.45,1.66-15.63,6.26-30.53,13.68-44.3,6.97-12.94,16.14-24.39,27.29-34.03,0,0,0,0,0,0h.01c.33-.3.67-.59,1.01-.87,11.63-9.85,24.81-17.32,39.17-22.2,14.87-5.05,30.43-7.12,46.24-6.14,9.44.59,18.78,2.27,27.75,5,8.72,2.66,17.15,6.32,25.05,10.88,2.8,1.62,3.76,5.2,2.14,8.01-1.62,2.8-5.2,3.76-8.01,2.14-14.63-8.45-30.67-13.27-47.66-14.33-27.54-1.71-53.35,6.9-73.56,22.57l6.87,7.93c9.13-7.01,19.29-12.31,30.22-15.77,11.56-3.66,23.62-5.13,35.83-4.38,14.72.91,28.93,5.08,41.67,12.15,0,0,.01,0,.02.01.02.01.04.02.06.03.02,0,.03.02.05.03,0,0,.02,0,.03.01,3.39,1.89,6.67,3.98,9.84,6.28.03.02.06.04.09.07,1.2.87,2.39,1.78,3.55,2.7l9.48-10.54h0s1.5-1.67,1.5-1.67c2.16-2.4,5.85-2.6,8.26-.45,0,0,.01,0,.02.01,0,0,.01.01.02.02,6.5,5.85,12.36,12.42,17.45,19.53,5.21,7.29,9.61,15.16,13.08,23.39,3.53,8.39,6.1,17.18,7.65,26.14,1.59,9.21,2.1,18.66,1.51,28.07Z"/>
        <path class="cls-7" d="M453.04,293.39c-.2-.08-.39-.17-.58-.28-.19-.11-.37-.22-.54-.34.38.2.75.41,1.12.62Z"/>
      </g>
      <g class="cls-15">
        <path class="cls-6" d="M459.58,297.65c-.19-.11-.37-.22-.55-.35-.18-.13-.35-.27-.5-.41.35.25.7.51,1.05.77Z"/>
      </g>
      <g class="cls-15">
        <path class="cls-6" d="M479.9,285.64c-.27-.17-.53-.37-.78-.59-.25-.22-.48-.46-.67-.72.49.43.97.87,1.45,1.31Z"/>
      </g>
      <g class="cls-15">
        <path class="cls-6" d="M519,361.94c-.07.52-.2,1.01-.38,1.48.14-1,.27-2,.38-3.01.07.5.07,1.01,0,1.53Z"/>
      </g>
      <g class="cls-15">
        <path class="cls-6" d="M524.87,411.06s-.03.05-.04.08c-.02.03-.04.06-.06.09.03-.06.07-.11.1-.17Z"/>
      </g>
    </g>
    <path class="cls-13" d="M802.84,620.98c0,32.98-26.73,59.67-59.67,59.67h-165.09c-32.94,0-59.67-26.69-59.67-59.67s26.73-59.63,59.67-59.63c4.09,0,8.1.42,12,1.2-.04-.35-.04-.69-.04-1.04v-.15c.08-40,32.52-72.44,72.59-72.44s72.52,32.44,72.59,72.44v.54c2.58-.35,5.25-.54,7.95-.54,32.94,0,59.67,26.69,59.67,59.63Z"/>
    <path class="cls-6" d="M459.98,268.65c.29-.14.56-.32.79-.55-.23.24-.49.43-.79.55Z"/>
    <path class="cls-6" d="M461.2,267.54c.08-.13.13-.28.18-.42-.04.13-.1.28-.18.42Z"/>
    <path class="cls-6" d="M461.52,266.32s.02-.18.02-.44v.44c0,.28-.06.55-.15.8.13-.39.14-.71.14-.8Z"/>
    <path class="cls-6" d="M449.3,267.01c.08.24.2.53.4.81-.2-.23-.32-.52-.4-.81Z"/>
    <path class="cls-6" d="M449.94,268.11c.23.23.49.41.79.55-.31-.12-.58-.31-.79-.55Z"/>
    <path class="cls-6" d="M449.21,266.46c.01.19.02.38.09.55-.07-.24-.08-.42-.09-.55Z"/>
    <path class="cls-6" d="M449.2,266.32s0,.09,0,.14c0-.05-.02-.09-.02-.14,0-.08,0-.15,0-.23,0,.13.02.23.02.23Z"/>
    <path class="cls-6" d="M449.19,265.72c0,.12,0,.25,0,.37,0-.1,0-.23,0-.37Z"/>
    <g>
      <path class="cls-12" d="M747.97,71.23v249.16c-63.27-33.21-108.14-111.72-109.74-203.82,46.2-4.57,85.78-21.56,109.74-45.34Z"/>
      <path class="cls-1" d="M857.71,116.57c-1.59,92.1-46.47,170.61-109.74,203.82V71.23c23.95,23.78,63.54,40.77,109.74,45.34Z"/>
      <path class="cls-5" d="M833.57,135.72c-1.24,71.85-36.25,133.09-85.6,159V100.35c18.69,18.55,49.57,31.81,85.6,35.37Z"/>
      <path class="cls-8" d="M747.97,95.45c-19.74,19.59-52.35,33.59-90.41,37.36,1.31,75.88,38.29,140.57,90.41,167.93,52.13-27.36,89.1-92.05,90.41-167.93-38.06-3.76-70.68-17.77-90.41-37.36ZM747.97,294.72c-49.35-25.91-84.36-87.15-85.6-159,36.04-3.56,66.92-16.82,85.6-35.37,18.69,18.55,49.57,31.81,85.6,35.37-1.24,71.85-36.25,133.09-85.6,159Z"/>
      <g>
        <path class="cls-9" d="M748.76,155.1c-11.72,0-21.21,8.17-21.21,18.22v8.81h7.66v-8.61c0-6.63,6.07-12,13.55-12s13.57,5.37,13.57,12v8.61h7.66v-8.81c0-10.05-9.51-18.22-21.23-18.22Z"/>
        <path class="cls-9" d="M767.58,184.13h-39.22c-4.41,0-8.01,3.58-8.01,7.99v33.23c0,4.41,3.6,7.99,8.01,7.99h39.22c4.41,0,8.01-3.58,8.01-7.99v-33.23c0-4.41-3.6-7.99-8.01-7.99ZM755.82,220.07c0,.16-.02.84-.41,1.56-.08.14-.14.25-.23.37-.1.12-.19.23-.31.35-.29.29-.64.52-1.01.7-.39.16-.82.25-1.26.25h-9.25c-.45,0-.87-.1-1.26-.25-.39-.17-.72-.41-1.01-.7-.12-.1-.23-.23-.31-.37-.25-.35-.41-.72-.51-1.03-.12-.43-.12-.78-.12-.87,0,0-.06-.54,0-1.07.1-1.01,1.48-4.01,3.69-8.11.47-.87.27-1.94-.41-2.57-1.59-1.46-2.62-3.67-2.62-6.16,0-4.41,3.23-7.99,7.19-7.99s7.17,3.58,7.17,7.99c0,2.49-1.03,4.71-2.61,6.16l-.02.02c-.68.62-.87,1.69-.41,2.55,2.22,4.1,3.58,7.1,3.69,8.11.02.17.02.35.02.51,0,.33-.02.56-.02.56Z"/>
      </g>
    </g>
    <g>
      <circle class="cls-13" cx="249.4" cy="60.06" r="42.63"/>
      <path class="cls-13" d="M325.02,193.34c0,2.88-.12,5.73-.35,8.53h-150.54c-.23-2.8-.35-5.65-.35-8.53,0-35.77,18.22-66.57,44.43-80.44,9.51,5.03,20.08,7.83,31.2,7.83s21.68-2.8,31.19-7.83c26.21,13.87,44.43,44.67,44.43,80.44Z"/>
      <path class="cls-13" d="M318.37,49.71v29.14c0,4.58-3.72,8.28-8.28,8.28h-2.76c-.88,0-1.72-.14-2.53-.4-.34-.11-.67-.24-.98-.38l-8.53,12.74c.63,1.05.99,2.27.99,3.59,0,3.91-3.16,7.06-7.06,7.06s-7.05-3.16-7.05-7.06,3.16-7.05,7.05-7.05c.34,0,.67.03,1.01.08l9.35-13.99c-.24-.61-.4-1.28-.47-1.95-.05-.31-.06-.61-.06-.92v-29.14c0-1.37.34-2.67.93-3.81-6.65-21.6-26.78-37.3-50.56-37.3s-43.79,15.59-50.52,37.09c.67,1.19,1.05,2.56,1.05,4.03v29.14c0,.43-.03.84-.11,1.25-.47,3.2-2.78,5.8-5.81,6.7-.75.21-1.54.34-2.36.34h-2.76c-4.58,0-8.28-3.71-8.28-8.28v-29.14c0-4.58,3.71-8.28,8.28-8.28h2.67C199.76,17.33,222.56,0,249.41,0s49.63,17.33,57.82,41.42h2.85c4.56,0,8.28,3.71,8.28,8.28Z"/>
    </g>
    <g>
      <rect class="cls-10" x="58.32" y="444.37" width="174.69" height="59.76" rx="6.99" ry="6.99"/>
      <rect class="cls-13" x="63.3" y="448.39" width="164.73" height="29.69" rx="5.08" ry="5.08"/>
      <g>
        <circle class="cls-7" cx="80.81" cy="463.79" r="4.82"/>
        <ellipse class="cls-6" cx="80.74" cy="462.02" rx="2.8" ry="2.11"/>
      </g>
      <g>
        <circle class="cls-7" cx="96.33" cy="463.79" r="4.82"/>
        <ellipse class="cls-6" cx="96.25" cy="462.02" rx="2.8" ry="2.11"/>
      </g>
      <g>
        <circle class="cls-7" cx="111.84" cy="463.79" r="4.82"/>
        <ellipse class="cls-6" cx="111.77" cy="462.02" rx="2.8" ry="2.11"/>
      </g>
      <g>
        <circle class="cls-7" cx="127.77" cy="463.79" r="4.82"/>
        <ellipse class="cls-6" cx="127.7" cy="462.02" rx="2.8" ry="2.11"/>
      </g>
      <polygon class="cls-16" points="182.45 453.56 182.45 473.29 157.53 473.29 164.65 453.56 182.45 453.56"/>
      <polygon class="cls-2" points="164.65 453.56 157.53 473.29 148.35 473.29 148.35 453.56 164.65 453.56"/>
      <polygon class="cls-16" points="189.15 473.29 189.15 453.56 214.07 453.56 206.95 473.29 189.15 473.29"/>
      <polygon class="cls-2" points="206.95 473.29 214.07 453.56 223.25 453.56 223.25 473.29 206.95 473.29"/>
      <path class="cls-16" d="M100.27,482.87h0c2.96,0,5.36,2.4,5.36,5.36v15.9h-10.73v-15.9c0-2.96,2.4-5.36,5.36-5.36Z"/>
      <path class="cls-16" d="M168.16,482.87h0c2.96,0,5.36,2.4,5.36,5.36v15.9h-10.73v-15.9c0-2.96,2.4-5.36,5.36-5.36Z"/>
      <path class="cls-16" d="M190.77,482.87h0c2.96,0,5.36,2.4,5.36,5.36v15.9h-10.73v-15.9c0-2.96,2.4-5.36,5.36-5.36Z"/>
      <path class="cls-16" d="M213.18,482.87h0c2.96,0,5.36,2.4,5.36,5.36v15.9h-10.73v-15.9c0-2.96,2.4-5.36,5.36-5.36Z"/>
      <path class="cls-16" d="M145.75,482.87h0c2.96,0,5.36,2.4,5.36,5.36v15.9h-10.73v-15.9c0-2.96,2.4-5.36,5.36-5.36Z"/>
      <path class="cls-16" d="M122.96,482.87h0c2.96,0,5.36,2.4,5.36,5.36v15.9h-10.73v-15.9c0-2.96,2.4-5.36,5.36-5.36Z"/>
      <rect class="cls-10" x="58.32" y="508.92" width="174.69" height="59.76" rx="6.99" ry="6.99"/>
      <rect class="cls-13" x="63.3" y="512.94" width="164.73" height="29.69" rx="5.08" ry="5.08"/>
      <g>
        <circle class="cls-7" cx="80.81" cy="528.35" r="4.82"/>
        <ellipse class="cls-6" cx="80.74" cy="526.57" rx="2.8" ry="2.11"/>
      </g>
      <g>
        <circle class="cls-7" cx="96.33" cy="528.35" r="4.82"/>
        <ellipse class="cls-6" cx="96.25" cy="526.57" rx="2.8" ry="2.11"/>
      </g>
      <g>
        <circle class="cls-7" cx="111.84" cy="528.35" r="4.82"/>
        <ellipse class="cls-6" cx="111.77" cy="526.57" rx="2.8" ry="2.11"/>
      </g>
      <g>
        <circle class="cls-7" cx="127.77" cy="528.35" r="4.82"/>
        <ellipse class="cls-6" cx="127.7" cy="526.57" rx="2.8" ry="2.11"/>
      </g>
      <polygon class="cls-16" points="182.45 518.12 182.45 537.85 157.53 537.85 164.65 518.12 182.45 518.12"/>
      <polygon class="cls-2" points="164.65 518.12 157.53 537.85 148.35 537.85 148.35 518.12 164.65 518.12"/>
      <polygon class="cls-16" points="189.15 537.85 189.15 518.12 214.07 518.12 206.95 537.85 189.15 537.85"/>
      <polygon class="cls-2" points="206.95 537.85 214.07 518.12 223.25 518.12 223.25 537.85 206.95 537.85"/>
      <path class="cls-16" d="M100.27,547.42h0c2.96,0,5.36,2.4,5.36,5.36v15.9h-10.73v-15.9c0-2.96,2.4-5.36,5.36-5.36Z"/>
      <path class="cls-16" d="M168.16,547.42h0c2.96,0,5.36,2.4,5.36,5.36v15.9h-10.73v-15.9c0-2.96,2.4-5.36,5.36-5.36Z"/>
      <path class="cls-16" d="M190.77,547.42h0c2.96,0,5.36,2.4,5.36,5.36v15.9h-10.73v-15.9c0-2.96,2.4-5.36,5.36-5.36Z"/>
      <path class="cls-16" d="M213.18,547.42h0c2.96,0,5.36,2.4,5.36,5.36v15.9h-10.73v-15.9c0-2.96,2.4-5.36,5.36-5.36Z"/>
      <path class="cls-16" d="M145.75,547.42h0c2.96,0,5.36,2.4,5.36,5.36v15.9h-10.73v-15.9c0-2.96,2.4-5.36,5.36-5.36Z"/>
      <path class="cls-16" d="M122.96,547.42h0c2.96,0,5.36,2.4,5.36,5.36v15.9h-10.73v-15.9c0-2.96,2.4-5.36,5.36-5.36Z"/>
      <rect class="cls-10" x="58.32" y="573.47" width="174.69" height="59.76" rx="6.99" ry="6.99"/>
      <rect class="cls-13" x="63.3" y="577.5" width="164.73" height="29.69" rx="5.08" ry="5.08"/>
      <g>
        <circle class="cls-7" cx="80.81" cy="592.9" r="4.82"/>
        <ellipse class="cls-6" cx="80.74" cy="591.12" rx="2.8" ry="2.11"/>
      </g>
      <g>
        <circle class="cls-7" cx="96.33" cy="592.9" r="4.82"/>
        <ellipse class="cls-6" cx="96.25" cy="591.12" rx="2.8" ry="2.11"/>
      </g>
      <g>
        <circle class="cls-7" cx="111.84" cy="592.9" r="4.82"/>
        <ellipse class="cls-6" cx="111.77" cy="591.12" rx="2.8" ry="2.11"/>
      </g>
      <g>
        <circle class="cls-7" cx="127.77" cy="592.9" r="4.82"/>
        <ellipse class="cls-6" cx="127.7" cy="591.12" rx="2.8" ry="2.11"/>
      </g>
      <polygon class="cls-16" points="182.45 582.67 182.45 602.4 157.53 602.4 164.65 582.67 182.45 582.67"/>
      <polygon class="cls-2" points="164.65 582.67 157.53 602.4 148.35 602.4 148.35 582.67 164.65 582.67"/>
      <polygon class="cls-16" points="189.15 602.4 189.15 582.67 214.07 582.67 206.95 602.4 189.15 602.4"/>
      <polygon class="cls-2" points="206.95 602.4 214.07 582.67 223.25 582.67 223.25 602.4 206.95 602.4"/>
      <path class="cls-16" d="M100.27,611.98h0c2.96,0,5.36,2.4,5.36,5.36v15.9h-10.73v-15.9c0-2.96,2.4-5.36,5.36-5.36Z"/>
      <path class="cls-16" d="M168.16,611.98h0c2.96,0,5.36,2.4,5.36,5.36v15.9h-10.73v-15.9c0-2.96,2.4-5.36,5.36-5.36Z"/>
      <path class="cls-16" d="M190.77,611.98h0c2.96,0,5.36,2.4,5.36,5.36v15.9h-10.73v-15.9c0-2.96,2.4-5.36,5.36-5.36Z"/>
      <path class="cls-16" d="M213.18,611.98h0c2.96,0,5.36,2.4,5.36,5.36v15.9h-10.73v-15.9c0-2.96,2.4-5.36,5.36-5.36Z"/>
      <path class="cls-16" d="M145.75,611.98h0c2.96,0,5.36,2.4,5.36,5.36v15.9h-10.73v-15.9c0-2.96,2.4-5.36,5.36-5.36Z"/>
      <path class="cls-16" d="M122.96,611.98h0c2.96,0,5.36,2.4,5.36,5.36v15.9h-10.73v-15.9c0-2.96,2.4-5.36,5.36-5.36Z"/>
      <rect class="cls-9" x="15.28" y="549.84" width="136.5" height="76.47" rx="9.29" ry="9.29"/>
      <g>
        <path class="cls-16" d="M145.83,560.71v54.74c0,2.55-2.07,4.62-4.62,4.62H54.78l26.01-63.98h60.42c2.55,0,4.62,2.07,4.62,4.62Z"/>
        <path class="cls-2" d="M80.79,556.09l-26.01,63.98h-28.92c-2.55,0-4.62-2.07-4.62-4.62v-54.74c0-2.55,2.07-4.62,4.62-4.62h54.94Z"/>
      </g>
      <path class="cls-3" d="M30.65,574.4c-.38,0-.77-.15-1.06-.44-.59-.59-.59-1.54,0-2.12l5.33-5.33c.59-.59,1.54-.59,2.12,0s.59,1.54,0,2.12l-5.33,5.33c-.29.29-.68.44-1.06.44Z"/>
      <path class="cls-3" d="M35.98,569.07c-.38,0-.77-.15-1.06-.44l-5.33-5.33c-.59-.59-.59-1.54,0-2.12s1.54-.59,2.12,0l5.33,5.33c.59.59.59,1.54,0,2.12-.29.29-.68.44-1.06.44Z"/>
      <path class="cls-3" d="M49.43,574.4h-8.69c-.83,0-1.5-.67-1.5-1.5s.67-1.5,1.5-1.5h8.69c.83,0,1.5.67,1.5,1.5s-.67,1.5-1.5,1.5Z"/>
    </g>
  </g>
</svg>