<?xml version="1.0" encoding="UTF-8"?>
<svg id="Layer_2" data-name="Layer 2" xmlns="http://www.w3.org/2000/svg" viewBox="0 0 217.73 228.6">
  <defs>
    <style>
      .cls-1 {
        fill: #231f20;
      }

      .cls-2 {
        fill: #fff;
      }

      .cls-3 {
        fill: #1c75bc;
      }

      .cls-4 {
        fill: #2b3990;
      }

      .cls-5 {
        fill: #e6e7e8;
      }

      .cls-6 {
        fill: #58595b;
      }

      .cls-7 {
        opacity: .44;
      }

      .cls-8 {
        fill: #bcbec0;
      }

      .cls-9 {
        fill: #00aeef;
      }

      .cls-10 {
        fill: #414042;
      }
    </style>
  </defs>
  <g id="Layer_3" data-name="Layer 3">
    <g class="cls-7">
      <path class="cls-9" d="M44.6,228.6c-.23-.17-.46-.35-.68-.53.11.09.23.18.34.27s.22.17.34.25Z"/>
    </g>
    <g class="cls-7">
      <path class="cls-9" d="M107.78,220.75c.11-.02.23-.05.34-.08-.09.02-.17.04-.26.06-.03,0-.06.01-.09.02Z"/>
    </g>
  </g>
  <g id="Layer_2-2" data-name="Layer 2">
    <g>
      <rect class="cls-6" x="43.04" width="174.69" height="59.76" rx="6.99" ry="6.99"/>
      <rect class="cls-8" x="48.02" y="4.02" width="164.73" height="29.69" rx="5.08" ry="5.08"/>
      <g>
        <circle class="cls-4" cx="65.53" cy="19.42" r="4.82"/>
        <ellipse class="cls-3" cx="65.45" cy="17.65" rx="2.8" ry="2.11"/>
      </g>
      <g>
        <circle class="cls-4" cx="81.04" cy="19.42" r="4.82"/>
        <ellipse class="cls-3" cx="80.97" cy="17.65" rx="2.8" ry="2.11"/>
      </g>
      <g>
        <circle class="cls-4" cx="96.56" cy="19.42" r="4.82"/>
        <ellipse class="cls-3" cx="96.49" cy="17.65" rx="2.8" ry="2.11"/>
      </g>
      <g>
        <circle class="cls-4" cx="112.49" cy="19.42" r="4.82"/>
        <ellipse class="cls-3" cx="112.42" cy="17.65" rx="2.8" ry="2.11"/>
      </g>
      <polygon class="cls-10" points="167.17 9.19 167.17 28.92 142.25 28.92 149.37 9.19 167.17 9.19"/>
      <polygon class="cls-1" points="149.37 9.19 142.25 28.92 133.07 28.92 133.07 9.19 149.37 9.19"/>
      <polygon class="cls-10" points="173.87 28.92 173.87 9.19 198.79 9.19 191.67 28.92 173.87 28.92"/>
      <polygon class="cls-1" points="191.67 28.92 198.79 9.19 207.97 9.19 207.97 28.92 191.67 28.92"/>
      <path class="cls-10" d="M84.99,38.5h0c2.96,0,5.36,2.4,5.36,5.36v15.9h-10.73v-15.9c0-2.96,2.4-5.36,5.36-5.36Z"/>
      <path class="cls-10" d="M152.88,38.5h0c2.96,0,5.36,2.4,5.36,5.36v15.9h-10.73v-15.9c0-2.96,2.4-5.36,5.36-5.36Z"/>
      <path class="cls-10" d="M175.48,38.5h0c2.96,0,5.36,2.4,5.36,5.36v15.9h-10.73v-15.9c0-2.96,2.4-5.36,5.36-5.36Z"/>
      <path class="cls-10" d="M197.9,38.5h0c2.96,0,5.36,2.4,5.36,5.36v15.9h-10.73v-15.9c0-2.96,2.4-5.36,5.36-5.36Z"/>
      <path class="cls-10" d="M130.47,38.5h0c2.96,0,5.36,2.4,5.36,5.36v15.9h-10.73v-15.9c0-2.96,2.4-5.36,5.36-5.36Z"/>
      <path class="cls-10" d="M107.67,38.5h0c2.96,0,5.36,2.4,5.36,5.36v15.9h-10.73v-15.9c0-2.96,2.4-5.36,5.36-5.36Z"/>
      <rect class="cls-6" x="43.04" y="64.55" width="174.69" height="59.76" rx="6.99" ry="6.99"/>
      <rect class="cls-8" x="48.02" y="68.58" width="164.73" height="29.69" rx="5.08" ry="5.08"/>
      <g>
        <circle class="cls-4" cx="65.53" cy="83.98" r="4.82"/>
        <ellipse class="cls-3" cx="65.45" cy="82.2" rx="2.8" ry="2.11"/>
      </g>
      <g>
        <circle class="cls-4" cx="81.04" cy="83.98" r="4.82"/>
        <ellipse class="cls-3" cx="80.97" cy="82.2" rx="2.8" ry="2.11"/>
      </g>
      <g>
        <circle class="cls-4" cx="96.56" cy="83.98" r="4.82"/>
        <ellipse class="cls-3" cx="96.49" cy="82.2" rx="2.8" ry="2.11"/>
      </g>
      <g>
        <circle class="cls-4" cx="112.49" cy="83.98" r="4.82"/>
        <ellipse class="cls-3" cx="112.42" cy="82.2" rx="2.8" ry="2.11"/>
      </g>
      <polygon class="cls-10" points="167.17 73.75 167.17 93.48 142.25 93.48 149.37 73.75 167.17 73.75"/>
      <polygon class="cls-1" points="149.37 73.75 142.25 93.48 133.07 93.48 133.07 73.75 149.37 73.75"/>
      <polygon class="cls-10" points="173.87 93.48 173.87 73.75 198.79 73.75 191.67 93.48 173.87 93.48"/>
      <polygon class="cls-1" points="191.67 93.48 198.79 73.75 207.97 73.75 207.97 93.48 191.67 93.48"/>
      <path class="cls-10" d="M84.99,103.05h0c2.96,0,5.36,2.4,5.36,5.36v15.9h-10.73v-15.9c0-2.96,2.4-5.36,5.36-5.36Z"/>
      <path class="cls-10" d="M152.88,103.05h0c2.96,0,5.36,2.4,5.36,5.36v15.9h-10.73v-15.9c0-2.96,2.4-5.36,5.36-5.36Z"/>
      <path class="cls-10" d="M175.48,103.05h0c2.96,0,5.36,2.4,5.36,5.36v15.9h-10.73v-15.9c0-2.96,2.4-5.36,5.36-5.36Z"/>
      <path class="cls-10" d="M197.9,103.05h0c2.96,0,5.36,2.4,5.36,5.36v15.9h-10.73v-15.9c0-2.96,2.4-5.36,5.36-5.36Z"/>
      <path class="cls-10" d="M130.47,103.05h0c2.96,0,5.36,2.4,5.36,5.36v15.9h-10.73v-15.9c0-2.96,2.4-5.36,5.36-5.36Z"/>
      <path class="cls-10" d="M107.67,103.05h0c2.96,0,5.36,2.4,5.36,5.36v15.9h-10.73v-15.9c0-2.96,2.4-5.36,5.36-5.36Z"/>
      <rect class="cls-6" x="43.04" y="129.11" width="174.69" height="59.76" rx="6.99" ry="6.99"/>
      <rect class="cls-8" x="48.02" y="133.13" width="164.73" height="29.69" rx="5.08" ry="5.08"/>
      <g>
        <circle class="cls-4" cx="65.53" cy="148.53" r="4.82"/>
        <ellipse class="cls-3" cx="65.45" cy="146.75" rx="2.8" ry="2.11"/>
      </g>
      <g>
        <circle class="cls-4" cx="81.04" cy="148.53" r="4.82"/>
        <ellipse class="cls-3" cx="80.97" cy="146.75" rx="2.8" ry="2.11"/>
      </g>
      <g>
        <circle class="cls-4" cx="96.56" cy="148.53" r="4.82"/>
        <ellipse class="cls-3" cx="96.49" cy="146.75" rx="2.8" ry="2.11"/>
      </g>
      <g>
        <circle class="cls-4" cx="112.49" cy="148.53" r="4.82"/>
        <ellipse class="cls-3" cx="112.42" cy="146.75" rx="2.8" ry="2.11"/>
      </g>
      <polygon class="cls-10" points="167.17 138.3 167.17 158.03 142.25 158.03 149.37 138.3 167.17 138.3"/>
      <polygon class="cls-1" points="149.37 138.3 142.25 158.03 133.07 158.03 133.07 138.3 149.37 138.3"/>
      <polygon class="cls-10" points="173.87 158.03 173.87 138.3 198.79 138.3 191.67 158.03 173.87 158.03"/>
      <polygon class="cls-1" points="191.67 158.03 198.79 138.3 207.97 138.3 207.97 158.03 191.67 158.03"/>
      <path class="cls-10" d="M84.99,167.61h0c2.96,0,5.36,2.4,5.36,5.36v15.9h-10.73v-15.9c0-2.96,2.4-5.36,5.36-5.36Z"/>
      <path class="cls-10" d="M152.88,167.61h0c2.96,0,5.36,2.4,5.36,5.36v15.9h-10.73v-15.9c0-2.96,2.4-5.36,5.36-5.36Z"/>
      <path class="cls-10" d="M175.48,167.61h0c2.96,0,5.36,2.4,5.36,5.36v15.9h-10.73v-15.9c0-2.96,2.4-5.36,5.36-5.36Z"/>
      <path class="cls-10" d="M197.9,167.61h0c2.96,0,5.36,2.4,5.36,5.36v15.9h-10.73v-15.9c0-2.96,2.4-5.36,5.36-5.36Z"/>
      <path class="cls-10" d="M130.47,167.61h0c2.96,0,5.36,2.4,5.36,5.36v15.9h-10.73v-15.9c0-2.96,2.4-5.36,5.36-5.36Z"/>
      <path class="cls-10" d="M107.67,167.61h0c2.96,0,5.36,2.4,5.36,5.36v15.9h-10.73v-15.9c0-2.96,2.4-5.36,5.36-5.36Z"/>
      <rect class="cls-5" y="105.48" width="136.5" height="76.47" rx="9.29" ry="9.29"/>
      <g>
        <path class="cls-10" d="M130.55,116.34v54.74c0,2.55-2.07,4.62-4.62,4.62H39.5l26.01-63.98h60.42c2.55,0,4.62,2.07,4.62,4.62Z"/>
        <path class="cls-1" d="M65.51,111.72l-26.01,63.98H10.57c-2.55,0-4.62-2.07-4.62-4.62v-54.74c0-2.55,2.07-4.62,4.62-4.62h54.94Z"/>
      </g>
      <path class="cls-2" d="M15.37,130.03c-.38,0-.77-.15-1.06-.44-.59-.59-.59-1.54,0-2.12l5.33-5.33c.59-.59,1.54-.59,2.12,0s.59,1.54,0,2.12l-5.33,5.33c-.29.29-.68.44-1.06.44Z"/>
      <path class="cls-2" d="M20.7,124.71c-.38,0-.77-.15-1.06-.44l-5.33-5.33c-.59-.59-.59-1.54,0-2.12s1.54-.59,2.12,0l5.33,5.33c.59.59.59,1.54,0,2.12-.29.29-.68.44-1.06.44Z"/>
      <path class="cls-2" d="M34.15,130.03h-8.69c-.83,0-1.5-.67-1.5-1.5s.67-1.5,1.5-1.5h8.69c.83,0,1.5.67,1.5,1.5s-.67,1.5-1.5,1.5Z"/>
    </g>
  </g>
</svg>