<?xml version="1.0" encoding="UTF-8"?>
<svg id="Layer_2" data-name="Layer 2" xmlns="http://www.w3.org/2000/svg" viewBox="0 0 151.24 201.87">
  <defs>
    <style>
      .cls-1 {
        fill: #bcbec0;
      }
    </style>
  </defs>
  <g id="Layer_2-2" data-name="Layer 2">
    <g>
      <circle class="cls-1" cx="75.62" cy="60.06" r="42.63"/>
      <path class="cls-1" d="M151.24,193.34c0,2.88-.12,5.73-.35,8.53H.35c-.23-2.8-.35-5.65-.35-8.53,0-35.77,18.22-66.57,44.43-80.44,9.51,5.03,20.08,7.83,31.2,7.83s21.68-2.8,31.19-7.83c26.21,13.87,44.43,44.67,44.43,80.44Z"/>
      <path class="cls-1" d="M144.59,49.71v29.14c0,4.58-3.72,8.28-8.28,8.28h-2.76c-.88,0-1.72-.14-2.53-.4-.34-.11-.67-.24-.98-.38l-8.53,12.74c.63,1.05.99,2.27.99,3.59,0,3.91-3.16,7.06-7.06,7.06s-7.05-3.16-7.05-7.06,3.16-7.05,7.05-7.05c.34,0,.67.03,1.01.08l9.35-13.99c-.24-.61-.4-1.28-.47-1.95-.05-.31-.06-.61-.06-.92v-29.14c0-1.37.34-2.67.93-3.81-6.65-21.6-26.78-37.3-50.56-37.3S31.84,24.18,25.11,45.68c.67,1.19,1.05,2.56,1.05,4.03v29.14c0,.43-.03.84-.11,1.25-.47,3.2-2.78,5.8-5.81,6.7-.75.21-1.54.34-2.36.34h-2.76c-4.58,0-8.28-3.71-8.28-8.28v-29.14c0-4.58,3.71-8.28,8.28-8.28h2.67C25.98,17.33,48.78,0,75.63,0s49.63,17.33,57.82,41.42h2.85c4.56,0,8.28,3.71,8.28,8.28Z"/>
    </g>
  </g>
</svg>